#!OML:ASF E:/inclinewalkrobotboard/Project1/Captureday1/Session1/subject1.ASF
:FULLY-SPECIFIED
:DEGREES
33
root 0 0 0 -2.217310274420285 -3.901611443928911 0.4781394487668827
lowerback 7.551194264460732 1.5445318927167004 -2.5158961972435323
upperback 1.7919751126700252 1.9146281238509666 -0.032871490870988174
thorax -2.4128335939619325 1.0058936677734354 1.2735296521638086
lowerneck -9.436369143813797 -5.488136121639641 -6.319678120624292
upperneck 31.25546951890741 -8.611560185744116 5.92569825129417
head 11.677205835028097 -3.925301572929979 1.9650328935675616
rclavicle -1.5967644221217845E-15 1.2748160522939276E-15
rhumerus -7.528755741333605 1.0513620978282754 -79.35468044086716
rradius 48.20722150967269
rwrist -20.529695971009197
rhand -41.99386850919676 16.28285664640858
rfingers 7.125019999999939
rthumb -14.830714509919623 -13.124150583938546
lclavicle -5.841074192529534E-15 6.045705283930356E-16
lhumerus -30.51726755954136 11.575378464184267 77.8455062607489
lradius 25.01106424290734
lwrist -4.504115728528125
lhand -24.20208467085836 21.886258256606027
lfingers 7.125019999999952
lthumb 2.2833023500599756 51.82504150542282
rfemur -15.08366517549821 7.516272266771864 32.7169032422651
rtibia 38.52698103983142
rfoot -12.672389424184546 -9.728848897428065
rtoes 6.580617831759858
lfemur -24.92898916659124 2.727314136559011 -15.91998916952763
ltibia 51.81344048618082
lfoot -2.583485137885189 -8.554445725257322
ltoes -4.694316392171286
34
root 0 0 0 -3.0786637150607796 -3.962708163650976 -0.5042205733660661
lowerback 8.647529904916903 1.2466277276487172 -0.3943351955856551
upperback -0.6732689614039828 1.5776061554872538 -0.8781481914523666
thorax -5.555519303970266 0.7499237974904146 -0.8651644832922816
lowerneck -11.720823848673579 -4.367225957043498 -5.616154127709762
upperneck 2.8228774589092493 -5.102992362878243 8.254618548638359
head 3.126108817247581 -2.362225388003804 3.355042131397919
rclavicle -3.0229507961491437E-15 -6.105684050399979E-16
rhumerus 1.3185266963020954 0.6250770475206573 -73.48062512499095
rradius 64.22108128779932
rwrist -17.61239655786746
rhand -40.75382448281104 13.667420371667571
rfingers 7.125019999999916
rthumb -13.576272456911035 -15.765765039479028
lclavicle -3.726315575519894E-15 -1.7808094641640184E-15
lhumerus -30.949158106456608 11.325607251177688 77.38429418771518
lradius 24.54713645311553
lwrist -5.1656480948238706
lhand -23.618039221915875 22.13445572589675
lfingers 7.12501999999995
lthumb 2.849066439363167 52.06450914981548
rfemur -10.96392872248958 7.381985290513815 33.02421795940715
rtibia 34.46310243754461
rfoot -14.43242786400743 -8.977359570913059
rtoes 8.120674550035279
lfemur -25.132599450740468 3.827732072890475 -13.800203392154122
ltibia 62.222443151151296
lfoot -3.931979422976938 -5.209120441717628
ltoes -6.495002739801147
35
root 0 0 0 -2.4464819421964528 -3.9673491841453816 0.35180502252686446
lowerback 7.5308913059792575 1.5072927730009034 -2.259417760007566
upperback 1.3858659333490668 1.873865217225056 -0.12502201734999963
thorax -2.8186797680794644 0.9722319518833035 1.0249265839871495
lowerneck -9.891230873514791 -5.299219482516098 -6.144064209801194
upperneck 28.595484740222854 -8.163842461900963 5.961045652362939
head 10.881652151838683 -3.7179252833415593 2.0324710229187337
rclavicle -1.844547597869863E-15 7.282252414939662E-16
rhumerus -5.878006000875821 0.6520574042700531 -78.41897074363649
rradius 50.3442238348058
rwrist -20.015520623125383
rhand -41.877386697536394 15.988172356352294
rfingers 7.125019999999936
rthumb -14.719005312313925 -13.420111406679986
lclavicle -5.156576873196391E-15 -3.0388890183547703E-16
lhumerus -30.463349152637168 11.326030859143234 78.03727161960195
lradius 24.982000675664885
lwrist -4.5368195716829405
lhand -23.938585488647323 22.003953021555766
lfingers 7.1250199999999495
lthumb 2.5371899872543726 51.94048199016303
rfemur -14.674716607360399 7.495458652305736 32.91787186851177
rtibia 36.98744819767843
rfoot -13.493731512375362 -9.277695610777961
rtoes 7.558902369256666
lfemur -24.709325608766488 3.6557245334043422 -14.500406900083224
ltibia 59.79226201098334
lfoot -3.276186977348191 -6.903006488961301
ltoes -6.624255463158756
36
root 0 0 0 -2.3644743466336915 -3.9477604712594987 0.4274444259413887
lowerback 7.414310089169018 1.53479546102962 -2.406337945748974
upperback 1.6214990236809799 1.9103474922278036 -0.06226414621396048
thorax -2.507445367146307 0.9984359035103474 1.1791817925838974
lowerneck -9.604638873116267 -5.4036650214005615 -6.224806337499282
upperneck 30.59966707462928 -8.459424155292316 5.808178419168641
head 11.48439870718197 -3.8515510424042447 1.9331605173915642
rclavicle -2.7002829461630236E-15 1.3058891428092958E-15
rhumerus -7.516731882547777 1.6777243382450062 -79.14131555647677
rradius 49.99095166288567
rwrist -20.749893634596162
rhand -41.88471822874621 15.668179393119255
rfingers 7.1250199999999415
rthumb -14.737409333777636 -13.745895966477502
lclavicle -6.205922651167174E-15 4.566225349889631E-16
lhumerus -30.44339352813794 11.246408122988584 78.09473942443687
lradius 24.969805612939144
lwrist -4.55327948626531
lhand -23.847558381572806 22.059756780009675
lfingers 7.1250199999999495
lthumb 2.624188107329216 51.99382592115846
rfemur -10.129390806567079 7.823304466618122 33.258471819950486
rtibia 33.341798517009614
rfoot -15.946814889025301 -9.412348529797718
rtoes 6.965131874085847
lfemur -25.841415795599115 3.9007636313352094 -13.817052284474627
ltibia 60.75083665456666
lfoot -4.200684037367901 -5.773955677285086
ltoes -7.195535730604838
37
root 0 0 0 -2.298486547558469 -3.895389792422246 0.4539246993632952
lowerback 7.427813225096278 1.5559554743689408 -2.4454457806350938
upperback 1.7197580706839029 1.9362930321425706 -0.0590053411062571
thorax -2.4120314029365053 1.01447133893152 1.2031536852115652
lowerneck -9.458673229856366 -5.444053959825272 -6.290731462267337
upperneck 30.85228862058329 -8.535437586466003 5.87461895928085
head 11.556609749842307 -3.888725891094815 1.9507757564415988
rclavicle -3.0900948934336607E-15 1.4844631134206785E-15
rhumerus -8.48648782477509 2.614375038151647 -79.44604963339718
rradius 50.65032287927038
rwrist -21.14992600077975
rhand -41.81909500103047 15.380330841448288
rfingers 7.125019999999944
rthumb -14.681477320948211 -14.041844883034955
lclavicle -6.5954939891244996E-15 7.461318727886121E-16
lhumerus -30.503129784871167 11.269838656725362 78.00692577812994
lradius 24.945425852090473
lwrist -4.587630772695437
lhand -23.86169204925627 22.06558563946385
lfingers 7.1250199999999495
lthumb 2.6105575796722906 51.99917432996782
rfemur -5.374611457045554 8.087041370249038 33.75671202343919
rtibia 30.386039549908695
rfoot -18.078691763418664 -9.375505764070496
rtoes 6.200801458465813
lfemur -27.060590307168265 3.7709926321959166 -13.445986664577834
ltibia 59.29255937372126
lfoot -4.855945789309148 -4.964161990477953
ltoes -7.382863770213319
